<svg width="91" height="76" viewBox="0 0 91 76" fill="none" xmlns="http://www.w3.org/2000/svg">
<ellipse cx="14.2154" cy="15.3099" rx="13.2853" ry="14.8615" fill="black"/>
<ellipse cx="77.7146" cy="15.3099" rx="13.2853" ry="14.8615" fill="black"/>
<path d="M8.82777 29.2034L8.83078 29.1969L8.83373 29.1903C13.0539 19.8046 17.8438 14.5267 25.4434 9.55259C31.234 5.7625 38.5891 4.029 45.8793 4.137C53.1749 4.24508 60.2186 6.1949 65.3609 9.55286C71.5339 13.5978 77.1197 20.0147 80.5743 29.0821L80.5754 29.085C83.9416 37.8805 84.5655 46.7783 83.0754 53.8828C81.5735 61.0438 78.0372 65.9964 73.4372 67.6942C62.0441 71.6621 53.2814 73.669 44.5421 73.7093C35.8069 73.7496 26.9414 71.8255 15.3505 67.698C13.4782 66.9971 11.6342 65.3615 10.029 62.828C8.43054 60.3052 7.15583 57.0223 6.37795 53.2938C4.81896 45.8214 5.31649 36.8644 8.82777 29.2034Z" fill="white" stroke="black" stroke-width="4"/>
<path d="M26.6523 26.7007C18.4507 26.7007 8.3556 38.0571 9.82806 46.0486C11.3005 54.0401 31.4896 55.7225 35.6954 46.6795C39.9011 37.6365 34.854 26.7007 26.6523 26.7007Z" fill="black"/>
<path d="M62.7233 26.7006C70.925 26.7006 81.02 38.0569 79.5476 46.0485C78.0751 54.04 57.886 55.7224 53.6803 46.6794C49.4745 37.6363 54.5217 26.7006 62.7233 26.7006Z" fill="black"/>
<path d="M54.6079 59.3192C47.0688 68.2714 41.8805 67.7399 34.6006 59.4542C33.9112 58.6696 34.7971 57.5031 35.7815 57.8521C42.2296 60.1381 46.9646 59.8499 53.5185 57.7692C54.4659 57.4684 55.2482 58.5589 54.6079 59.3192Z" fill="url(#paint0_linear_1128_5431)"/>
<path d="M34.6006 59.4542L33.8494 60.1142H33.8494L34.6006 59.4542ZM54.6079 59.3192L53.843 58.6751V58.6751L54.6079 59.3192ZM53.5185 57.7692L53.8211 58.7223V58.7223L53.5185 57.7692ZM35.7815 57.8521L35.4474 58.7946L35.7815 57.8521ZM33.8494 60.1142C37.5063 64.2763 40.878 66.7939 44.4913 66.8508C48.1258 66.908 51.573 64.4754 55.3728 59.9634L53.843 58.6751C50.1037 63.1152 47.1872 64.8929 44.5228 64.851C41.8372 64.8087 38.9749 62.9177 35.3518 58.7941L33.8494 60.1142ZM53.2159 56.8161C49.9902 57.8402 47.2702 58.4041 44.5938 58.4483C41.9252 58.4924 39.2489 58.0204 36.1157 56.9096L35.4474 58.7946C38.7622 59.9698 41.6774 60.4968 44.6268 60.4481C47.5685 60.3995 50.4929 59.779 53.8211 58.7223L53.2159 56.8161ZM55.3728 59.9634C56.0207 59.1941 55.9396 58.2242 55.4744 57.568C55.015 56.9199 54.1458 56.5209 53.2159 56.8161L53.8211 58.7223C53.8364 58.7175 53.8424 58.7181 53.8409 58.718C53.8397 58.718 53.8373 58.7176 53.8353 58.7169C53.8329 58.716 53.8378 58.7176 53.8428 58.7246C53.8477 58.7315 53.8409 58.7266 53.8411 58.7047C53.8412 58.6931 53.8434 58.6816 53.8468 58.6726C53.8503 58.6633 53.852 58.6644 53.843 58.6751L55.3728 59.9634ZM35.3518 58.7941C35.3423 58.7833 35.3451 58.7832 35.3495 58.7949C35.3538 58.8064 35.3559 58.8193 35.3558 58.8307C35.3557 58.8514 35.3495 58.8467 35.3647 58.8263C35.3798 58.8061 35.3988 58.7944 35.4103 58.7904C35.4147 58.7889 35.4176 58.7886 35.4201 58.7886C35.4221 58.7886 35.4306 58.7887 35.4474 58.7946L36.1157 56.9096C35.1539 56.5686 34.2449 56.9831 33.7621 57.6298C33.2705 58.2883 33.1414 59.3085 33.8494 60.1142L35.3518 58.7941Z" fill="black"/>
<path d="M39.4351 50.8875C37.8583 51.1126 37.6335 52.0133 38.5344 53.1392C40.5608 55.6719 43.0376 56.9672 44.6139 56.9672C46.1902 56.9672 48.3874 56.0239 50.6937 53.1392C51.5938 52.0133 51.1435 51.1126 49.793 50.8875C48.4425 50.6624 41.012 50.6623 39.4351 50.8875Z" fill="black"/>
<ellipse cx="41.9118" cy="52.6889" rx="1.8014" ry="0.9007" fill="white"/>
<path fill-rule="evenodd" clip-rule="evenodd" d="M39.6601 48.7826C41.1806 47.8298 42.9447 47.2847 44.8259 47.2847C46.381 47.2847 47.856 47.6572 49.1797 48.3246C47.9178 46.8267 46.3281 45.9337 44.6007 45.9337C42.7039 45.9337 40.9731 47.0105 39.6601 48.7826Z" fill="#C2CFD1"/>
<path d="M13.7431 10.0685C13.7405 10.2641 13.8345 10.4488 13.9939 10.5624L16.2253 12.1038C16.4143 12.2346 16.5092 12.4638 16.4682 12.6902C16.4334 12.9173 16.2708 13.1037 16.0512 13.1705L13.468 13.9888C13.3775 14.0166 13.2952 14.0655 13.2263 14.1309L13.1225 14.235C13.092 14.2765 13.0683 14.3234 13.0538 14.3733L12.2504 16.9645C12.2088 17.0907 12.1289 17.201 12.0209 17.2795C11.7512 17.4642 11.3833 17.4001 11.1917 17.1351L9.64116 14.9098C9.52575 14.7498 9.3399 14.6558 9.14275 14.6577L6.41527 14.7061C6.18706 14.7101 5.97774 14.582 5.87796 14.377C5.77703 14.1739 5.79685 13.9319 5.92994 13.7482L7.55509 11.5619C7.68478 11.4016 7.72344 11.186 7.65782 10.9905L6.77016 8.43014C6.75163 8.37188 6.74191 8.31091 6.74293 8.24992L6.75047 8.18853C6.74847 8.15056 6.75261 8.11335 6.76213 8.07689L6.78847 8.01968L6.82663 7.92754L6.98777 7.76572C7.14668 7.63612 7.35986 7.595 7.55523 7.65711L10.1228 8.51507C10.3097 8.57873 10.516 8.54607 10.6745 8.42913L12.854 6.79471C13.0378 6.65623 13.2836 6.63231 13.4906 6.73198C13.6948 6.83511 13.8207 7.04696 13.8139 7.27596L13.7431 10.0685Z" fill="white"/>
<path d="M55.5966 43.0705C55.5966 41.9877 59.5675 36.0087 64.6168 36.0087C69.6662 36.0087 73.6489 41.4463 73.6489 43.0706C73.6489 44.6949 71.8463 38.5564 64.6168 38.5564C58.1109 38.5564 55.5966 45.2362 55.5966 43.0705Z" fill="white"/>
<path d="M34.1314 43.1896C34.1314 42.1068 30.1605 36.1277 25.1112 36.1277C20.0618 36.1277 16.0791 41.5654 16.0791 43.1897C16.0791 44.8139 17.8816 38.4329 25.1112 38.4329C31.6171 38.4329 34.1314 45.3553 34.1314 43.1896Z" fill="white"/>
<defs>
<linearGradient id="paint0_linear_1128_5431" x1="42.7288" y1="60.1972" x2="42.7288" y2="65.1316" gradientUnits="userSpaceOnUse">
<stop stop-color="#860000"/>
<stop offset="1" stop-color="#FA7171"/>
</linearGradient>
</defs>
</svg>
