<svg width="140" height="24" viewBox="0 0 140 24" fill="none" xmlns="http://www.w3.org/2000/svg">
<path d="M11.1667 1.25589C11.5623 0.659711 12.4377 0.65971 12.8333 1.25589L15.9555 5.96167C16.0884 6.16194 16.2889 6.30765 16.5205 6.37214L21.9608 7.8874C22.65 8.07937 22.9205 8.91195 22.4758 9.47237L18.9651 13.896C18.8157 14.0842 18.7391 14.32 18.7493 14.5601L18.9894 20.2024C19.0198 20.9172 18.3115 21.4318 17.6411 21.182L12.3492 19.2101C12.124 19.1262 11.876 19.1262 11.6508 19.2101L6.3589 21.182C5.68846 21.4318 4.98023 20.9172 5.01064 20.2024L5.25068 14.5601C5.2609 14.32 5.18429 14.0842 5.03489 13.896L1.52425 9.47237C1.07948 8.91195 1.35 8.07937 2.03924 7.8874L7.47953 6.37214C7.71105 6.30765 7.91161 6.16194 8.04449 5.96167L11.1667 1.25589Z" fill="#F8D51D"/>
<path d="M40.1667 1.25589C40.5623 0.659711 41.4377 0.65971 41.8333 1.25589L44.9555 5.96167C45.0884 6.16194 45.2889 6.30765 45.5205 6.37214L50.9608 7.8874C51.65 8.07937 51.9205 8.91195 51.4758 9.47237L47.9651 13.896C47.8157 14.0842 47.7391 14.32 47.7493 14.5601L47.9894 20.2024C48.0198 20.9172 47.3115 21.4318 46.6411 21.182L41.3492 19.2101C41.124 19.1262 40.876 19.1262 40.6508 19.2101L35.3589 21.182C34.6885 21.4318 33.9802 20.9172 34.0106 20.2024L34.2507 14.5601C34.2609 14.32 34.1843 14.0842 34.0349 13.896L30.5242 9.47237C30.0795 8.91195 30.35 8.07937 31.0392 7.8874L36.4795 6.37214C36.7111 6.30765 36.9116 6.16194 37.0445 5.96167L40.1667 1.25589Z" fill="#F8D51D"/>
<path d="M69.1667 1.25589C69.5623 0.659711 70.4377 0.65971 70.8333 1.25589L73.9555 5.96167C74.0884 6.16194 74.2889 6.30765 74.5205 6.37214L79.9608 7.8874C80.65 8.07937 80.9205 8.91195 80.4758 9.47237L76.9651 13.896C76.8157 14.0842 76.7391 14.32 76.7493 14.5601L76.9894 20.2024C77.0198 20.9172 76.3115 21.4318 75.6411 21.182L70.3492 19.2101C70.124 19.1262 69.876 19.1262 69.6508 19.2101L64.3589 21.182C63.6885 21.4318 62.9802 20.9172 63.0106 20.2024L63.2507 14.5601C63.2609 14.32 63.1843 14.0842 63.0349 13.896L59.5242 9.47237C59.0795 8.91195 59.35 8.07937 60.0392 7.8874L65.4795 6.37214C65.7111 6.30765 65.9116 6.16194 66.0445 5.96167L69.1667 1.25589Z" fill="#F8D51D"/>
<path d="M98.1667 1.25589C98.5623 0.659711 99.4377 0.65971 99.8333 1.25589L102.956 5.96167C103.088 6.16194 103.289 6.30765 103.52 6.37214L108.961 7.8874C109.65 8.07937 109.921 8.91195 109.476 9.47237L105.965 13.896C105.816 14.0842 105.739 14.32 105.749 14.5601L105.989 20.2024C106.02 20.9172 105.312 21.4318 104.641 21.182L99.3492 19.2101C99.124 19.1262 98.876 19.1262 98.6508 19.2101L93.3589 21.182C92.6885 21.4318 91.9802 20.9172 92.0106 20.2024L92.2507 14.5601C92.2609 14.32 92.1843 14.0842 92.0349 13.896L88.5242 9.47237C88.0795 8.91195 88.35 8.07937 89.0392 7.8874L94.4795 6.37214C94.7111 6.30765 94.9116 6.16194 95.0445 5.96167L98.1667 1.25589Z" fill="#F8D51D"/>
<path d="M127.167 1.25589C127.562 0.659711 128.438 0.65971 128.833 1.25589L131.956 5.96167C132.088 6.16194 132.289 6.30765 132.52 6.37214L137.961 7.8874C138.65 8.07937 138.921 8.91195 138.476 9.47237L134.965 13.896C134.816 14.0842 134.739 14.32 134.749 14.5601L134.989 20.2024C135.02 20.9172 134.312 21.4318 133.641 21.182L128.349 19.2101C128.124 19.1262 127.876 19.1262 127.651 19.2101L122.359 21.182C121.688 21.4318 120.98 20.9172 121.011 20.2024L121.251 14.5601C121.261 14.32 121.184 14.0842 121.035 13.896L117.524 9.47237C117.079 8.91195 117.35 8.07937 118.039 7.8874L123.48 6.37214C123.711 6.30765 123.912 6.16194 124.044 5.96167L127.167 1.25589Z" fill="#F8D51D"/>
</svg>
